<?xml version="1.0" encoding="utf-8"?> <!-- Generator: IcoMoon.io --> <!DOCTYPE svg PUBLIC "-//W3C//DTD SVG 1.1//EN" "http://www.w3.org/Graphics/SVG/1.1/DTD/svg11.dtd"> <svg width="32" height="32" viewBox="0 0 32 32" xmlns="http://www.w3.org/2000/svg" xmlns:xlink="http://www.w3.org/1999/xlink" fill="#000000"><g><path d="M 28,8l-6,0 L 22,4 c0-1.1-0.9-2-2-2L 12,2 c-1.1,0-2,0.9-2,2l0,4 L 4,8 c-2.2,0-4,1.8-4,4l0,16 c0,2.2, 1.8,4, 4,4l 24,0 c 2.2,0, 4-1.8, 4-4L 32,12 C 32,9.8, 30.2,8, 28,8z M 12,4l 8,0 l0,4 L 12,8 L 12,4 z M 24,22l-6,0 l0,6 l-4,0 l0-6 l-6,0 l0-4 l 6,0 l0-6 l 4,0 l0,6 l 6,0 L 24,22 z"></path></g></svg>