<?xml version="1.0" encoding="utf-8"?> <!-- Generator: IcoMoon.io --> <!DOCTYPE svg PUBLIC "-//W3C//DTD SVG 1.1//EN" "http://www.w3.org/Graphics/SVG/1.1/DTD/svg11.dtd"> <svg width="32" height="32" viewBox="0 0 32 32" xmlns="http://www.w3.org/2000/svg" xmlns:xlink="http://www.w3.org/1999/xlink" fill="#000000"><g><path d="M 12,2l 20,0 l0,4 L 12,6 L 12,2 z M 12,14l 20,0 l0,4 L 12,18 L 12,14 z M 12,26l 20,0 l0,4 L 12,30 L 12,26 zM0,4A4,4 2520 1 0 8,4A4,4 2520 1 0 0,4zM0,16A4,4 2520 1 0 8,16A4,4 2520 1 0 0,16zM0,28A4,4 2520 1 0 8,28A4,4 2520 1 0 0,28z"></path></g></svg>